<?xml version="1.0" encoding="utf-8"?>
<!-- Generator: Adobe Illustrator 19.1.0, SVG Export Plug-In . SVG Version: 6.00 Build 0)  -->
<svg version="1.1" id="Ebene_1" xmlns="http://www.w3.org/2000/svg" xmlns:xlink="http://www.w3.org/1999/xlink" x="0px" y="0px"
	 width="1344px" height="245.8px" viewBox="0 0 1344 245.8" enable-background="new 0 0 1344 245.8" xml:space="preserve">
<path fill-rule="evenodd" clip-rule="evenodd" d="M110.8,172.5c4.4,0,62.5-93.4,62.5-93.4l0,136.3c0,14.9,15.5,14.7,15.5,14.7
	l13.8,0c17.5,0,17.5-14.6,17.5-14.6l0-194.9C220.1,7.3,206.3,7,206.5,7l-34.4,0c-0.2,0-7.9,0.4-13.1,9.4L111.9,94L61.4,16.4
	C55.5,7.2,48.5,7,48.5,7L14.3,7C0,7.2-0.1,21.3,0,21.3l0,194.2c0,14.5,15.6,14.5,15.6,14.5h16.2c15.4,0,15.1-14.3,15.1-14.3l0-135
	C46.8,80.7,107.5,172.5,110.8,172.5z M564.3,7l-26.8,0c0,0.2-14.4,0.2-14.4,14.2l0,194.6c0,0,0,14.4,15.4,14.3h16.2
	c0,0,15.4,0.2,15.4-14.2V80.7l0.4,0l87.3,138.5c7.2,10.8,14.9,10.8,16.4,10.8l22.1,0c18.4,0,18.4-15.3,18.4-15.3l0-193.5
	C714.8,7,700.1,7,700.1,7l-17.3,0c-14.7,0-14.7,14.3-14.7,14.3l-0.2,135.4l-0.7,0L582.7,23C573.2,7,565.1,7,564.3,7z M1329.1,7
	h-20.2c0.2,0-14.7,0.2-14.7,14.5l-0.4,194.2c0,0,0.4,14.5,14,14.3l22.6,0c13.6-0.2,13.8-14.5,13.6-14.3l0-194.4
	C1344,21.3,1343.8,7,1329.1,7z M371.6,44.1c42.3,0,76.5,33.5,76.5,74.8c0,41.4-34.2,74.9-76.5,74.9c-42.3,0-76.5-33.4-76.5-74.9
	C295.1,77.6,329.3,44.1,371.6,44.1z M371.6,1.6c-66,0-119.5,52.6-119.5,117.3c0,64.8,53.5,117.3,119.6,117.3
	c66.2,0,119.7-52.6,119.7-117.3C491.3,54.2,437.8,1.6,371.6,1.6z M866.3,42.5c42.3,0,76.5,33.6,76.5,75c0,41.4-34.2,74.8-76.5,74.8
	c-42.3,0-76.5-33.5-76.5-74.8C789.8,76.1,824,42.5,866.3,42.5z M866.3,0c-66,0-119.5,52.6-119.5,117.5
	c0,64.7,53.5,117.3,119.5,117.3c66.2,0,119.7-52.6,119.7-117.3C986.1,52.6,932.5,0,866.3,0z M1193.7,216.3l26.5,26
	c0.2,0,8.5,8.3,16.9-0.2l16.9-15.8c10.5-10.1,2.2-18.2,2.2-18.2l-27-26.3c12.3-18.4,19.3-40.3,19.3-63.8
	c0-64.9-53.7-117.3-119.7-117.3c-24.1,0-46.7,7-65.5,19.1l31.8,30.9c10.1-5,21.5-7.7,33.7-7.7c42.1,0,76.3,33.7,76.3,75
	c0,41.4-34.2,75-76.3,75c-42.1,0-76.5-33.7-76.5-75c0-11.8,2.7-23,7.7-32.8l-31.6-31.1c-12.1,18.4-19.3,40.3-19.3,63.8
	c0,64.7,53.7,117.3,119.7,117.3C1152.7,235.2,1175.1,228.2,1193.7,216.3z"/>
</svg>
